<?xml version="1.0" standalone="no"?><!DOCTYPE svg PUBLIC "-//W3C//DTD SVG 1.1//EN" "http://www.w3.org/Graphics/SVG/1.1/DTD/svg11.dtd"><svg class="icon" height="512" viewBox="0 0 1024 1024" version="1.1" xmlns="http://www.w3.org/2000/svg"><path d="M960 837.6 529.568 837.6 529.568 784.864 907.296 784.864 907.296 152.416 116.704 152.416 116.704 784.864 230.912 784.864 230.912 837.6 64 837.6 64 99.712 960 99.712ZM374.368 740.96c-87.2 0-158.112-70.944-158.112-158.112 0-87.168 70.944-158.112 158.112-158.112s158.112 70.944 158.112 158.112C532.512 670.016 461.568 740.96 374.368 740.96zM374.368 477.44c-58.112 0-105.408 47.296-105.408 105.408 0 58.144 47.296 105.408 105.408 105.408s105.408-47.264 105.408-105.408C479.776 524.704 432.512 477.44 374.368 477.44zM497.344 924.288 374.368 862.368 251.36 924.288 251.36 670.688 304.096 670.688 304.096 838.752 374.368 803.36 444.672 838.752 444.672 670.688 497.344 670.688ZM248.48 284.192l0 52.704 527.072 0L775.552 284.192 248.48 284.192zM564.704 495.008l210.816 0 0-52.704-210.816 0L564.704 495.008zM564.704 653.12l210.816 0 0-52.672-210.816 0L564.704 653.12z" /></svg>